<?xml version="1.0" encoding="UTF-8" standalone="no"?>
<!-- Created with Inkscape (http://www.inkscape.org/) -->

<svg
   version="1.1"
   id="svg1"
   width="117.33333"
   height="98.666664"
   viewBox="0 0 117.33333 98.666664"
   xmlns="http://www.w3.org/2000/svg"
   xmlns:svg="http://www.w3.org/2000/svg">
  <defs
     id="defs1" />
  <g
     id="g1">
    <ellipse
       style="fill:#ffffff;fill-opacity:1;stroke:#ffffff;stroke-width:0.945145;stroke-opacity:1"
       id="path31"
       cx="55.391811"
       cy="46.217545"
       rx="47.341267"
       ry="35.282009" />
    <path
       style="fill:none;stroke:#5b5b5b;stroke-opacity:1"
       d="m 15.259171,59.323087 3.100794,-15.259171 11.668778,-12.647976 8.567984,-3.182394 22.603157,-7.915185 8.894383,-2.692795 4.97759,0.652799 8.159985,2.121596 8.241584,8.404784 3.508793,12.566376 -8.241584,25.051153 z"
       id="path1" />
    <path
       style="fill:none;stroke:#5b5b5b;stroke-opacity:1"
       d="m 15.177571,59.241487 8.812783,-4.814391 2.529596,-14.687972 9.220782,-9.873581"
       id="path3" />
    <path
       style="fill:none;stroke:#5b5b5b;stroke-opacity:1"
       d="m 19.991962,43.084718 9.955181,7.262386 -5.875189,4.079992"
       id="path4" />
    <path
       style="fill:none;stroke:#5b5b5b;stroke-opacity:1"
       d="m 39.167926,56.711892 c 0,0 0,0 -9.057583,-6.446388 l 8.731183,-4.732791 -1.223998,-5.05919 -3.916792,-3.916793 -7.180786,3.100795 -4.406392,0.489599"
       id="path5" />
    <path
       style="fill:none;stroke:#5b5b5b;stroke-opacity:1"
       d="m 30.273542,50.020705 3.671993,-13.708774 7.425586,-8.649584"
       id="path6" />
    <path
       style="fill:none;stroke:#5b5b5b;stroke-opacity:1"
       d="m 34.027135,36.475131 8.894383,-4.814391 2.611195,-5.22239"
       id="path7" />
    <path
       style="fill:none;stroke:#5b5b5b;stroke-opacity:1"
       d="m 40.065524,33.863936 -2.366396,6.446387"
       id="path8" />
    <path
       style="fill:none;stroke:#5b5b5b;stroke-opacity:1"
       d="m 43.492717,31.57914 5.38559,-2.774395 -3.263994,-2.284795 3.182394,2.203195 3.998393,-0.652798 14.687972,4.079992 15.259171,-11.668778"
       id="path9" />
    <path
       style="fill:none;stroke:#5b5b5b;stroke-opacity:1"
       d="M 67.156672,32.313539 81.110246,45.940713 91.147027,29.457544"
       id="path10" />
    <path
       style="fill:none;stroke:#5b5b5b;stroke-opacity:1"
       d="m 81.110246,46.022312 5.875189,18.686365"
       id="path11" />
    <path
       style="fill:none;stroke:#5b5b5b;stroke-opacity:1"
       d="M 81.273445,45.859113 59.731086,57.93589"
       id="path12" />
    <path
       style="fill:none;stroke:#5b5b5b;stroke-opacity:1"
       d="M 55.079895,53.529498 66.911873,32.558338"
       id="path13" />
    <path
       style="fill:none;stroke:#5b5b5b;stroke-opacity:1"
       d="M 48.878307,51.897501 49.204706,28.967945"
       id="path14" />
    <path
       style="fill:none;stroke:#5b5b5b;stroke-opacity:1"
       d="m 43.492717,52.958299 -4.651191,-7.670385 9.628782,-6.283188 45.695913,1.631997"
       id="path15" />
    <path
       style="fill:none;stroke:#5b5b5b;stroke-opacity:1"
       d="M 43.492717,31.905539 41.86072,42.758319"
       id="path16" />
    <path
       style="fill:none;stroke:#5b5b5b;stroke-opacity:1"
       d="m 52.060701,27.743947 3.508793,-5.14079"
       id="path17" />
    <path
       style="fill:none;stroke:#5b5b5b;stroke-opacity:1"
       d="M 71.807863,29.783943 84.04784,40.963122 89.51503,58.343889"
       id="path18" />
    <path
       style="fill:none;stroke:#5b5b5b;stroke-opacity:1"
       d="M 91.228626,53.284699 86.414236,37.943928 74.337459,27.091148"
       id="path19" />
    <path
       style="fill:none;stroke:#5b5b5b;stroke-opacity:1"
       d="M 93.023823,48.633507 87.883033,35.659132 76.703854,25.214352"
       id="path20" />
    <path
       style="fill:none;stroke:#5b5b5b;stroke-opacity:1"
       d="M 94.57422,43.737517 89.107031,32.803138 79.233449,23.255956"
       id="path21" />
    <path
       style="fill:none;stroke:#5b5b5b;stroke-opacity:1"
       d="m 81.355045,21.623959 8.975983,8.812783 3.753593,7.507186"
       id="path22" />
    <path
       style="fill:none;stroke:#5b5b5b;stroke-opacity:1"
       d="M 71.726264,29.620744 54.671896,24.153554"
       id="path23" />
    <path
       style="fill:none;stroke:#5b5b5b;stroke-opacity:1"
       d="m 58.915088,21.705559 14.361573,5.05919"
       id="path24" />
    <path
       style="fill:none;stroke:#5b5b5b;stroke-opacity:1"
       d="m 62.83188,19.828762 13.463975,5.38559"
       id="path25" />
    <path
       style="fill:none;stroke:#5b5b5b;stroke-opacity:1"
       d="M 67.809471,18.441565 78.98865,23.174356"
       id="path26" />
    <path
       style="fill:none;stroke:#5b5b5b;stroke-opacity:1"
       d="M 81.763044,21.542359 70.828665,17.543967"
       id="path27" />
    <path
       style="fill:none;stroke:#5b5b5b;stroke-opacity:1"
       d="m 52.060701,27.091148 -0.652799,1.223998"
       id="path28" />
    <path
       style="fill:#5a5a5a;stroke:#5b5b5b;stroke-opacity:1;fill-opacity:1"
       d="m 38.841526,61.118284 0.0816,-4.406392 c 0,0 3.019194,-3.671993 4.161592,-4.079992 1.142398,-0.407999 1.142398,-0.407999 1.142398,-0.407999 0,0 2.447995,-0.408 4.651191,-0.3264 2.203196,0.0816 2.203196,0.0816 2.203196,0.0816 l 4.161592,1.468797 c 0,0 3.916792,2.121596 4.406392,4.324792 0.489599,2.203196 0.489599,2.203196 0.489599,2.203196 l 0.244799,3.671993 z"
       id="path29" />
    <text
       xml:space="preserve"
       style="font-size:7.10184px;text-align:start;writing-mode:lr-tb;direction:ltr;text-anchor:start;fill:#5a5a5a;fill-opacity:1;stroke:#ffffff;stroke-width:0.59182;stroke-opacity:1"
       x="43.362137"
       y="58.31398"
       id="text29"
       transform="scale(0.95988238,1.0417943)"><tspan
         id="tspan29"
         x="43.362137"
         y="58.31398"
         style="fill:#ffffff;fill-opacity:1;stroke-width:0.59182;stroke:#ffffff;stroke-opacity:1">KHA</tspan></text>
  </g>
</svg>
